<?xml version="1.0" encoding="utf-8" standalone="no"?>
<!DOCTYPE svg PUBLIC "-//W3C//DTD SVG 1.1//EN"
  "http://www.w3.org/Graphics/SVG/1.1/DTD/svg11.dtd">
<!-- Created with matplotlib (http://matplotlib.org/) -->
<svg height="432pt" version="1.1" viewBox="0 0 576 432" width="576pt" xmlns="http://www.w3.org/2000/svg" xmlns:xlink="http://www.w3.org/1999/xlink">
 <defs>
  <style type="text/css">
*{stroke-linecap:butt;stroke-linejoin:round;stroke-miterlimit:100000;}
  </style>
 </defs>
 <g id="figure_1">
  <g id="patch_1">
   <path d="M 0 432 
L 576 432 
L 576 0 
L 0 0 
z
" style="fill:#ffffff;"/>
  </g>
  <g id="axes_1">
   <g id="patch_2">
    <path d="M 72 388.8 
L 518.4 388.8 
L 518.4 43.2 
L 72 43.2 
z
" style="fill:#ffffff;"/>
   </g>
   <g id="line2d_1">
    <path clip-path="url(#p060048791f)" d="M 72 378.481399 
L 72.4464 187.075301 
L 72.8928 105.404122 
L 73.3392 95.999287 
L 73.7856 76.878954 
L 74.232 80.831511 
L 74.6784 59.965258 
L 75.1248 74.187162 
L 75.5712 72.533412 
L 76.0176 72.172925 
L 76.464 77.233328 
L 76.9104 87.253976 
L 77.3568 85.204816 
L 77.8032 84.46503 
L 78.2496 80.437475 
L 78.696 77.769039 
L 79.1424 81.742094 
L 79.5888 81.066817 
L 80.0352 84.651599 
L 80.4816 83.421099 
L 80.928 73.134191 
L 81.3744 76.851606 
L 81.8208 72.983041 
L 82.2672 76.577638 
L 82.7136 90.797712 
L 83.16 75.762802 
L 83.6064 76.760084 
L 84.0528 73.109078 
L 84.9456 76.505845 
L 85.392 71.469874 
L 85.8384 86.021239 
L 86.2848 78.140476 
L 86.7312 80.30828 
L 87.1776 74.959315 
L 87.624 83.714292 
L 88.0704 89.937217 
L 88.5168 86.577317 
L 88.9632 89.737437 
L 89.4096 84.936224 
L 89.856 76.948269 
L 90.3024 82.580481 
L 90.7488 81.209395 
L 91.1952 83.035137 
L 91.6416 79.271899 
L 92.088 84.251757 
L 92.5344 75.262735 
L 92.9808 89.997948 
L 93.4272 80.140783 
L 93.8736 80.699605 
L 94.32 77.066334 
L 94.7664 71.271269 
L 95.2128 77.842633 
L 95.6592 78.869844 
L 96.1056 75.087631 
L 96.552 75.950256 
L 96.9984 83.585021 
L 97.4448 81.607807 
L 97.8912 77.788563 
L 98.3376 82.219578 
L 98.784 87.987543 
L 99.2304 72.62093 
L 99.6768 73.136735 
L 100.1232 91.619586 
L 100.5696 87.929349 
L 101.016 82.850009 
L 101.4624 82.130976 
L 101.9088 80.748621 
L 102.3552 81.217344 
L 102.8016 75.6778 
L 103.248 67.518699 
L 103.6944 83.42389 
L 104.1408 79.821321 
L 104.5872 79.641601 
L 105.0336 85.087086 
L 105.48 82.131243 
L 105.9264 77.119182 
L 106.3728 70.671189 
L 106.8192 80.530769 
L 107.2656 76.798745 
L 107.712 81.4257 
L 108.1584 71.881661 
L 109.0512 71.781123 
L 109.4976 79.064946 
L 109.944 75.224319 
L 110.3904 74.01148 
L 110.8368 73.966676 
L 111.2832 79.752246 
L 111.7296 75.848634 
L 112.176 74.994108 
L 112.6224 77.621732 
L 113.0688 79.237895 
L 113.5152 78.45637 
L 113.9616 80.393758 
L 114.408 67.283086 
L 114.8544 84.042186 
L 115.3008 75.566757 
L 115.7472 69.982068 
L 116.1936 69.718474 
L 116.64 74.033074 
L 117.0864 80.370906 
L 117.5328 73.060703 
L 117.9792 75.327836 
L 118.4256 81.67923 
L 118.872 82.687269 
L 119.3184 71.763404 
L 120.2112 77.065192 
L 120.6576 72.263776 
L 121.104 72.933038 
L 121.9968 82.370895 
L 122.4432 73.71656 
L 122.8896 72.549138 
L 123.336 76.810793 
L 123.7824 71.929758 
L 124.2288 81.074544 
L 124.6752 71.722164 
L 125.1216 72.545727 
L 125.568 69.797165 
L 126.4608 78.990482 
L 126.9072 78.282145 
L 127.3536 82.631498 
L 127.8 78.563763 
L 128.2464 78.843803 
L 128.6928 79.411548 
L 129.1392 74.924106 
L 129.5856 77.477809 
L 130.032 81.423857 
L 130.4784 73.339591 
L 131.3712 85.282933 
L 131.8176 77.042669 
L 132.264 66.177828 
L 132.7104 79.437067 
L 133.1568 74.009378 
L 133.6032 75.007023 
L 134.0496 80.623665 
L 134.496 82.654271 
L 134.9424 88.80022 
L 135.3888 87.716937 
L 135.8352 76.462349 
L 136.2816 85.882292 
L 136.728 80.400908 
L 137.1744 79.430738 
L 137.6208 77.028445 
L 138.0672 77.583684 
L 138.5136 77.901328 
L 138.96 75.979958 
L 139.4064 80.144916 
L 139.8528 77.648947 
L 140.2992 73.679553 
L 140.7456 84.305401 
L 141.192 73.879369 
L 141.6384 77.408708 
L 142.0848 83.865524 
L 142.5312 81.393322 
L 142.9776 79.798815 
L 143.424 70.89807 
L 143.8704 88.371898 
L 144.3168 71.19483 
L 144.7632 75.170453 
L 145.2096 83.678488 
L 145.656 73.675138 
L 146.1024 77.704689 
L 146.5488 74.146963 
L 146.9952 78.090614 
L 147.4416 78.322522 
L 147.888 82.697326 
L 148.3344 81.500864 
L 148.7808 81.989605 
L 149.2272 78.168838 
L 149.6736 75.325541 
L 150.12 73.939383 
L 150.5664 74.317625 
L 151.0128 72.954585 
L 151.4592 77.170724 
L 151.9056 72.867038 
L 152.352 82.180848 
L 152.7984 75.544166 
L 153.2448 78.255061 
L 153.6912 73.258806 
L 154.1376 80.57761 
L 154.584 78.643296 
L 155.0304 76.107544 
L 155.4768 76.321489 
L 155.9232 78.048391 
L 156.3696 85.609289 
L 156.816 66.79125 
L 157.2624 79.026628 
L 157.7088 70.372871 
L 158.1552 68.760885 
L 158.6016 79.732544 
L 159.048 77.57567 
L 159.4944 85.832193 
L 159.9408 82.835426 
L 160.3872 75.731269 
L 160.8336 72.172389 
L 161.28 71.793487 
L 161.7264 78.864995 
L 162.1728 78.4116 
L 162.6192 79.056981 
L 163.512 87.015262 
L 163.9584 72.986184 
L 164.4048 69.006056 
L 164.8512 78.126515 
L 165.2976 77.981286 
L 165.744 80.825038 
L 166.1904 85.836389 
L 166.6368 75.404327 
L 167.0832 73.657812 
L 167.5296 80.584488 
L 167.976 75.892694 
L 168.4224 79.962254 
L 168.8688 80.358821 
L 169.3152 79.862043 
L 169.7616 76.283834 
L 170.208 81.345057 
L 170.6544 71.951425 
L 171.1008 79.22353 
L 171.5472 77.111138 
L 171.9936 79.47227 
L 172.44 77.407129 
L 172.8864 77.590053 
L 173.3328 75.809015 
L 173.7792 75.370879 
L 174.2256 83.255156 
L 174.672 80.794982 
L 175.1184 72.49187 
L 175.5648 86.898329 
L 176.0112 82.241586 
L 176.4576 70.488071 
L 176.904 74.031578 
L 177.3504 75.201253 
L 177.7968 78.097926 
L 178.2432 85.921862 
L 178.6896 84.45082 
L 179.136 79.709753 
L 179.5824 84.081708 
L 180.0288 92.458354 
L 180.4752 79.63545 
L 180.9216 80.096105 
L 181.368 74.019827 
L 181.8144 81.086815 
L 182.2608 76.366283 
L 182.7072 78.770019 
L 183.1536 78.785385 
L 183.6 77.281738 
L 184.4928 68.282623 
L 184.9392 80.972484 
L 185.3856 77.66559 
L 185.832 83.35351 
L 186.2784 81.264848 
L 187.1712 74.426005 
L 187.6176 88.005683 
L 188.064 74.68078 
L 188.5104 71.86123 
L 188.9568 74.469141 
L 189.4032 79.254254 
L 189.8496 72.504498 
L 190.296 73.597446 
L 190.7424 72.461264 
L 191.1888 93.24728 
L 191.6352 78.98387 
L 192.0816 74.205428 
L 192.528 78.066904 
L 192.9744 79.767735 
L 193.4208 80.186883 
L 193.8672 74.131137 
L 194.3136 70.167802 
L 194.76 69.263007 
L 195.2064 85.487795 
L 195.6528 81.095547 
L 196.0992 82.171248 
L 196.5456 75.16317 
L 196.992 74.400471 
L 197.4384 75.321775 
L 197.8848 74.87729 
L 198.3312 72.098541 
L 198.7776 77.048433 
L 199.224 74.383379 
L 199.6704 83.542022 
L 200.1168 79.222777 
L 200.5632 90.466056 
L 201.0096 75.017519 
L 201.456 75.86241 
L 201.9024 79.208671 
L 202.3488 80.849314 
L 202.7952 80.499287 
L 203.2416 81.065824 
L 203.688 78.730258 
L 204.1344 73.351542 
L 204.5808 75.633748 
L 205.0272 70.62185 
L 205.4736 74.744972 
L 205.92 87.416342 
L 206.3664 79.436559 
L 206.8128 69.25288 
L 207.2592 76.998389 
L 207.7056 79.092351 
L 208.152 74.842797 
L 208.5984 80.212126 
L 209.0448 69.296617 
L 209.4912 74.904532 
L 209.9376 76.481744 
L 210.384 74.788136 
L 210.8304 85.559393 
L 211.2768 74.382433 
L 211.7232 67.519814 
L 212.1696 76.773623 
L 212.616 74.183167 
L 213.0624 78.30147 
L 213.5088 73.999434 
L 213.9552 76.1912 
L 214.4016 80.944701 
L 214.848 83.339704 
L 215.2944 73.612567 
L 215.7408 80.589189 
L 216.1872 71.593557 
L 217.08 79.166451 
L 217.5264 79.95131 
L 217.9728 80.090023 
L 218.4192 82.922332 
L 218.8656 79.790474 
L 219.312 73.341362 
L 219.7584 81.918862 
L 220.2048 71.640971 
L 220.6512 84.197986 
L 221.0976 74.223231 
L 221.544 80.996128 
L 221.9904 73.415957 
L 222.4368 79.470083 
L 222.8832 79.384965 
L 223.3296 85.84695 
L 223.776 71.937201 
L 224.2224 75.538831 
L 224.6688 71.670758 
L 225.1152 78.227516 
L 225.5616 87.888665 
L 226.008 82.964677 
L 226.4544 84.092203 
L 226.9008 73.752208 
L 227.3472 70.539227 
L 227.7936 82.31621 
L 228.24 78.127314 
L 228.6864 82.252251 
L 229.1328 84.681712 
L 230.0256 74.466243 
L 230.472 74.242643 
L 230.9184 76.571822 
L 231.3648 80.673459 
L 231.8112 77.536542 
L 232.2576 77.614143 
L 232.704 79.009411 
L 233.1504 81.478489 
L 233.5968 68.212579 
L 234.0432 81.565388 
L 234.4896 76.52684 
L 234.936 77.934516 
L 235.3824 85.126345 
L 235.8288 86.218492 
L 236.2752 75.160084 
L 236.7216 72.250898 
L 237.168 74.506343 
L 237.6144 80.822089 
L 238.0608 77.598984 
L 238.5072 72.462653 
L 238.9536 85.55453 
L 239.4 91.28151 
L 239.8464 78.154012 
L 240.2928 79.134069 
L 240.7392 75.58001 
L 241.1856 82.272047 
L 241.632 82.493646 
L 242.0784 76.55148 
L 242.5248 84.161636 
L 242.9712 87.367886 
L 243.4176 73.703913 
L 243.864 77.819185 
L 244.3104 76.018893 
L 244.7568 74.74593 
L 245.2032 81.085997 
L 245.6496 77.941503 
L 246.096 81.449728 
L 246.5424 87.131341 
L 246.9888 77.532236 
L 247.4352 74.502634 
L 247.8816 76.099642 
L 248.328 79.634726 
L 248.7744 77.023672 
L 249.2208 78.549792 
L 249.6672 83.105288 
L 250.1136 75.503126 
L 250.56 71.658012 
L 251.0064 84.838848 
L 251.4528 92.965341 
L 251.8992 89.948448 
L 252.3456 79.894173 
L 252.792 75.567283 
L 253.6848 86.263214 
L 254.1312 86.750071 
L 255.024 74.264848 
L 255.4704 77.815696 
L 255.9168 67.89013 
L 256.3632 73.206719 
L 256.8096 80.090545 
L 257.256 81.487002 
L 257.7024 79.745255 
L 258.1488 76.639619 
L 258.5952 76.260514 
L 259.0416 75.023777 
L 259.488 76.43165 
L 259.9344 82.826002 
L 260.3808 79.02819 
L 260.8272 82.871675 
L 261.2736 89.034151 
L 261.72 77.131231 
L 262.1664 74.761246 
L 262.6128 87.003095 
L 263.0592 77.815284 
L 263.5056 75.559167 
L 263.952 79.891827 
L 264.3984 78.868716 
L 264.8448 85.450928 
L 265.2912 80.022555 
L 265.7376 77.835058 
L 266.184 78.540712 
L 266.6304 86.900103 
L 267.0768 76.714098 
L 267.5232 75.324336 
L 267.9696 72.091098 
L 268.416 74.428515 
L 268.8624 78.131377 
L 269.3088 79.405375 
L 269.7552 73.423472 
L 270.2016 81.963854 
L 270.648 80.303744 
L 271.5408 72.32918 
L 272.4336 81.153006 
L 272.88 68.454605 
L 273.7728 88.125333 
L 274.2192 74.464469 
L 274.6656 85.979508 
L 275.112 77.415747 
L 275.5584 76.654615 
L 276.0048 72.010702 
L 276.4512 82.508321 
L 276.8976 81.099641 
L 277.344 71.151645 
L 277.7904 84.971607 
L 278.2368 87.004087 
L 278.6832 82.159762 
L 279.1296 69.102813 
L 279.576 79.322753 
L 280.0224 82.818008 
L 280.4688 77.631931 
L 280.9152 81.153882 
L 281.3616 77.707866 
L 281.808 77.507895 
L 282.2544 80.032287 
L 282.7008 75.387606 
L 283.1472 79.828317 
L 283.5936 75.846702 
L 284.04 79.977174 
L 284.4864 89.350494 
L 284.9328 78.30963 
L 285.3792 74.396928 
L 286.272 82.248505 
L 286.7184 74.207038 
L 287.1648 73.76315 
L 287.6112 85.520087 
L 288.0576 86.859611 
L 288.504 77.054577 
L 288.9504 76.897272 
L 289.3968 70.403465 
L 289.8432 69.928291 
L 290.2896 81.130458 
L 290.736 85.488009 
L 291.1824 77.888606 
L 291.6288 82.080835 
L 292.0752 79.407311 
L 292.5216 81.218222 
L 292.968 74.987045 
L 293.4144 80.186915 
L 293.8608 79.569024 
L 294.3072 74.655148 
L 294.7536 75.704599 
L 295.2 79.324069 
L 295.6464 77.853469 
L 296.0928 80.566938 
L 296.5392 82.40496 
L 296.9856 81.905936 
L 297.432 70.680615 
L 297.8784 74.63542 
L 298.3248 74.31022 
L 298.7712 77.434695 
L 299.2176 78.727612 
L 299.664 78.214252 
L 300.1104 72.822467 
L 300.5568 70.846015 
L 301.0032 67.666021 
L 301.4496 85.935039 
L 301.896 70.27478 
L 302.3424 79.037306 
L 302.7888 75.294091 
L 303.2352 73.74156 
L 303.6816 73.174044 
L 304.128 86.160174 
L 304.5744 84.748242 
L 305.0208 78.606712 
L 305.4672 81.599115 
L 305.9136 85.430302 
L 306.36 69.868296 
L 306.8064 76.902343 
L 307.2528 79.965783 
L 307.6992 77.428821 
L 308.1456 78.084011 
L 308.592 75.78526 
L 309.0384 75.57043 
L 309.4848 76.959849 
L 309.9312 69.258253 
L 310.3776 73.186485 
L 310.824 86.057095 
L 311.2704 78.524332 
L 311.7168 84.35561 
L 312.1632 73.206665 
L 312.6096 76.462007 
L 313.056 73.917935 
L 313.5024 76.261228 
L 313.9488 77.85411 
L 314.3952 78.297535 
L 314.8416 75.701211 
L 315.288 88.126563 
L 315.7344 76.731416 
L 316.1808 74.600665 
L 316.6272 82.285986 
L 317.0736 79.663495 
L 317.52 82.937463 
L 317.9664 73.678455 
L 318.4128 85.597069 
L 319.3056 80.455095 
L 319.752 71.970848 
L 320.6448 83.068861 
L 321.0912 85.743702 
L 321.5376 87.70377 
L 321.984 74.073565 
L 322.4304 72.734424 
L 322.8768 73.560434 
L 323.3232 81.696331 
L 323.7696 81.999462 
L 324.216 75.960089 
L 324.6624 74.094309 
L 325.5552 82.3443 
L 326.0016 84.112934 
L 326.448 81.420695 
L 326.8944 75.93207 
L 327.3408 78.60048 
L 327.7872 75.115139 
L 328.2336 82.248008 
L 328.68 81.388392 
L 329.1264 75.061702 
L 329.5728 75.032829 
L 330.0192 78.788088 
L 330.4656 78.538942 
L 330.912 83.561113 
L 331.3584 77.249066 
L 331.8048 79.691797 
L 332.2512 89.196803 
L 332.6976 81.562517 
L 333.144 71.268836 
L 334.0368 84.235275 
L 334.4832 77.226817 
L 334.9296 79.482486 
L 335.376 74.216758 
L 335.8224 74.932108 
L 336.2688 85.454078 
L 336.7152 75.80618 
L 337.1616 76.49869 
L 337.608 73.640894 
L 338.0544 76.692172 
L 338.5008 84.933808 
L 338.9472 84.59763 
L 339.3936 77.816676 
L 339.84 75.776621 
L 340.2864 94.082921 
L 340.7328 82.445157 
L 341.1792 81.776482 
L 341.6256 90.012508 
L 342.5184 79.420992 
L 342.9648 85.455844 
L 343.4112 81.624922 
L 343.8576 79.356578 
L 344.304 83.944157 
L 344.7504 69.768081 
L 345.1968 76.69537 
L 345.6432 86.318272 
L 346.536 76.120135 
L 346.9824 75.238644 
L 347.4288 80.65823 
L 347.8752 71.485792 
L 348.3216 84.364107 
L 349.2144 80.537393 
L 349.6608 81.735292 
L 350.1072 77.178544 
L 350.5536 81.789085 
L 351 79.13489 
L 351.4464 77.275726 
L 351.8928 73.143983 
L 352.3392 79.745085 
L 352.7856 79.060662 
L 353.232 77.368 
L 353.6784 92.233896 
L 354.1248 84.942664 
L 354.5712 72.264178 
L 355.0176 72.786255 
L 355.464 78.723687 
L 355.9104 80.453799 
L 356.3568 72.692141 
L 356.8032 71.766316 
L 357.2496 74.434331 
L 357.696 78.466308 
L 358.1424 74.746718 
L 358.5888 80.793246 
L 359.0352 77.463045 
L 359.4816 76.287131 
L 359.928 78.81049 
L 360.3744 73.939052 
L 360.8208 83.342782 
L 361.2672 78.587513 
L 362.16 86.030139 
L 362.6064 80.849072 
L 363.0528 73.484667 
L 363.4992 83.278842 
L 363.9456 82.414777 
L 364.392 76.221797 
L 364.8384 77.179859 
L 365.2848 63.996351 
L 365.7312 80.352357 
L 366.1776 73.490364 
L 366.624 76.351305 
L 367.0704 77.187306 
L 367.5168 82.34406 
L 367.9632 78.494925 
L 368.4096 80.015164 
L 368.856 78.47286 
L 369.3024 76.289844 
L 369.7488 79.268888 
L 370.1952 76.703802 
L 370.6416 78.675462 
L 371.088 88.164008 
L 371.5344 79.942759 
L 371.9808 80.255561 
L 372.4272 76.47525 
L 372.8736 87.002401 
L 373.32 79.590567 
L 373.7664 76.969261 
L 374.2128 75.280403 
L 374.6592 90.958858 
L 375.1056 81.841137 
L 375.552 77.174798 
L 376.4448 73.644069 
L 376.8912 83.865655 
L 377.3376 75.539439 
L 377.784 71.125887 
L 378.2304 71.857905 
L 378.6768 81.359348 
L 379.1232 83.52065 
L 379.5696 75.536992 
L 380.016 77.263173 
L 380.4624 84.865429 
L 380.9088 72.181538 
L 381.3552 78.758629 
L 381.8016 70.88988 
L 382.248 82.804311 
L 382.6944 72.487171 
L 383.5872 78.13901 
L 384.0336 73.949275 
L 384.48 86.238118 
L 384.9264 75.133889 
L 385.3728 79.642253 
L 385.8192 79.547825 
L 386.2656 70.770815 
L 386.712 77.813007 
L 387.1584 71.987631 
L 387.6048 81.717554 
L 388.0512 74.344317 
L 388.944 79.188639 
L 389.3904 78.054284 
L 389.8368 86.05998 
L 390.2832 81.304567 
L 390.7296 71.498491 
L 391.176 77.601131 
L 391.6224 74.835731 
L 392.0688 73.682298 
L 392.5152 81.328627 
L 392.9616 73.814099 
L 393.8544 74.570326 
L 394.3008 76.628038 
L 394.7472 77.795139 
L 395.1936 80.537746 
L 395.64 76.996976 
L 396.0864 77.974083 
L 396.5328 82.316247 
L 396.9792 69.254547 
L 397.4256 82.303225 
L 397.872 73.062677 
L 398.3184 75.299954 
L 398.7648 81.24546 
L 399.2112 71.802578 
L 399.6576 78.622969 
L 400.104 82.406009 
L 400.5504 70.298286 
L 400.9968 75.720522 
L 401.4432 79.371789 
L 401.8896 70.023381 
L 402.336 84.108134 
L 402.7824 78.420061 
L 403.2288 74.257649 
L 403.6752 80.189264 
L 404.1216 82.794159 
L 404.568 74.492967 
L 405.0144 71.686558 
L 405.4608 71.870232 
L 405.9072 67.715105 
L 406.3536 82.008423 
L 406.8 74.632373 
L 407.2464 82.40754 
L 407.6928 72.901718 
L 408.1392 74.060384 
L 408.5856 78.895057 
L 409.032 81.102885 
L 409.9248 71.1155 
L 410.3712 70.630707 
L 410.8176 72.434149 
L 411.264 74.864843 
L 412.1568 69.351683 
L 412.6032 74.833079 
L 413.0496 83.33682 
L 413.496 77.843356 
L 413.9424 74.691752 
L 414.3888 82.328968 
L 414.8352 77.706937 
L 415.2816 80.149174 
L 415.728 75.168423 
L 416.1744 78.239328 
L 416.6208 88.144668 
L 417.0672 74.054914 
L 417.5136 79.876326 
L 417.96 72.226219 
L 418.4064 76.247213 
L 418.8528 76.431289 
L 419.2992 73.621298 
L 419.7456 81.111962 
L 420.192 78.522612 
L 420.6384 70.433855 
L 421.0848 78.210897 
L 421.5312 78.819515 
L 421.9776 75.808751 
L 422.424 75.790882 
L 422.8704 82.213397 
L 423.3168 83.112257 
L 423.7632 77.326153 
L 424.2096 74.952349 
L 424.656 82.741957 
L 425.5488 74.234023 
L 425.9952 80.065657 
L 426.4416 75.229953 
L 426.888 74.208846 
L 427.3344 68.50394 
L 427.7808 74.28788 
L 428.2272 72.142372 
L 428.6736 73.233309 
L 429.12 82.100866 
L 429.5664 71.658269 
L 430.0128 84.954795 
L 430.4592 68.25663 
L 430.9056 73.584679 
L 431.352 80.922915 
L 431.7984 73.292619 
L 432.2448 77.236639 
L 432.6912 79.139919 
L 433.1376 83.788024 
L 433.584 76.499898 
L 434.0304 76.452331 
L 434.4768 76.028947 
L 434.9232 69.655177 
L 435.3696 73.575752 
L 435.816 71.827325 
L 436.2624 77.433823 
L 436.7088 71.408624 
L 437.1552 79.673669 
L 437.6016 76.573634 
L 438.048 78.095858 
L 438.4944 75.660373 
L 438.9408 74.113834 
L 439.3872 72.976372 
L 439.8336 74.250416 
L 440.28 79.260177 
L 440.7264 68.759914 
L 441.1728 71.522277 
L 441.6192 82.467608 
L 442.0656 84.722257 
L 442.512 75.477005 
L 443.4048 82.8351 
L 443.8512 74.088247 
L 444.2976 68.448391 
L 445.1904 83.20769 
L 445.6368 80.899852 
L 446.5296 75.137315 
L 446.976 74.146414 
L 447.4224 75.292508 
L 447.8688 74.483764 
L 448.3152 77.944807 
L 448.7616 67.558664 
L 449.208 68.031015 
L 449.6544 84.344483 
L 450.1008 77.917418 
L 450.5472 79.594818 
L 450.9936 74.109996 
L 451.44 76.602026 
L 451.8864 73.856762 
L 452.3328 76.009309 
L 452.7792 79.012959 
L 453.672 73.808369 
L 454.1184 74.759024 
L 454.5648 81.748775 
L 455.0112 78.099935 
L 455.4576 75.693238 
L 455.904 76.758341 
L 456.3504 76.777437 
L 456.7968 81.393737 
L 457.2432 73.120943 
L 457.6896 77.357528 
L 458.136 78.324208 
L 458.5824 67.123704 
L 459.4752 76.944401 
L 459.9216 75.954364 
L 460.368 69.567459 
L 460.8144 71.472021 
L 461.7072 77.222548 
L 462.1536 74.48695 
L 462.6 79.399846 
L 463.0464 79.076084 
L 463.4928 74.356781 
L 463.9392 68.086821 
L 464.3856 80.696308 
L 464.832 71.136597 
L 465.2784 82.530211 
L 465.7248 76.381023 
L 466.1712 80.46523 
L 466.6176 74.455167 
L 467.064 76.888968 
L 467.5104 78.065733 
L 467.9568 73.376459 
L 468.4032 70.896862 
L 468.8496 79.375044 
L 469.296 69.86467 
L 469.7424 81.20463 
L 470.1888 69.091927 
L 470.6352 84.605499 
L 471.0816 75.543095 
L 471.528 76.77749 
L 471.9744 79.897691 
L 472.4208 69.30125 
L 472.8672 71.188235 
L 473.3136 73.900269 
L 473.76 75.271469 
L 474.2064 78.969015 
L 474.6528 71.887304 
L 475.0992 73.257097 
L 475.5456 76.183185 
L 475.992 76.272508 
L 476.4384 75.322538 
L 476.8848 73.059475 
L 477.3312 77.920698 
L 477.7776 75.504655 
L 478.224 80.161459 
L 478.6704 78.169211 
L 479.1168 73.400364 
L 479.5632 76.021352 
L 480.0096 77.290966 
L 480.456 69.688484 
L 480.9024 69.953558 
L 481.3488 61.540467 
L 481.7952 77.762311 
L 482.2416 75.733003 
L 482.688 69.795421 
L 483.1344 73.817476 
L 483.5808 73.176499 
L 484.0272 77.420625 
L 484.4736 67.618241 
L 484.92 76.57011 
L 485.3664 75.784877 
L 485.8128 72.284502 
L 486.2592 82.181112 
L 486.7056 80.179111 
L 487.152 76.446895 
L 487.5984 76.618616 
L 488.0448 74.241507 
L 488.4912 77.704986 
L 488.9376 73.794756 
L 489.384 77.187016 
L 489.8304 64.173674 
L 490.2768 80.514916 
L 490.7232 69.432107 
L 491.1696 77.72785 
L 492.0624 69.994286 
L 492.5088 75.965723 
L 492.9552 78.373334 
L 493.4016 70.50699 
L 493.848 70.695385 
L 494.2944 76.141612 
L 494.7408 77.667093 
L 495.1872 77.715102 
L 495.6336 76.02288 
L 496.08 73.424016 
L 496.5264 72.07785 
L 496.9728 73.363771 
L 497.4192 73.444879 
L 497.8656 78.549293 
L 498.312 70.0621 
L 498.7584 76.655318 
L 499.2048 81.447039 
L 499.6512 74.186649 
L 500.0976 71.796476 
L 500.544 91.089559 
L 501.4368 77.101733 
L 501.8832 82.575412 
L 502.3296 69.936097 
L 502.776 66.934853 
L 503.2224 81.648952 
L 503.6688 72.690446 
L 504.1152 75.326399 
L 504.5616 82.715711 
L 505.008 76.35324 
L 505.4544 75.074641 
L 505.9008 71.618455 
L 506.3472 71.236034 
L 506.7936 67.243917 
L 507.24 70.719968 
L 507.6864 72.679832 
L 508.1328 80.198641 
L 508.5792 76.723892 
L 509.0256 70.168269 
L 509.472 72.287151 
L 509.9184 78.375635 
L 510.3648 77.199624 
L 510.8112 70.361404 
L 511.2576 69.828775 
L 511.704 73.708774 
L 512.1504 72.707462 
L 512.5968 79.910699 
L 513.0432 75.630044 
L 513.4896 76.516824 
L 513.936 68.107309 
L 514.3824 79.51118 
L 514.8288 69.858921 
L 515.2752 77.297167 
L 515.7216 79.541654 
L 516.168 76.647458 
L 516.6144 72.9431 
L 517.0608 76.793084 
L 517.5072 77.335006 
L 517.9536 79.408509 
L 517.9536 79.408509 
" style="fill:none;stroke:#0000ff;stroke-linecap:square;"/>
   </g>
   <g id="line2d_2">
    <path clip-path="url(#p060048791f)" d="M 72 43.555346 
L 72.4464 43.217361 
L 84.0528 43.203888 
L 517.9536 43.200015 
L 517.9536 43.200015 
" style="fill:none;stroke:#ff0000;stroke-linecap:square;"/>
   </g>
   <g id="patch_3">
    <path d="M 72 43.2 
L 518.4 43.2 
" style="fill:none;stroke:#000000;stroke-linecap:square;stroke-linejoin:miter;"/>
   </g>
   <g id="patch_4">
    <path d="M 518.4 388.8 
L 518.4 43.2 
" style="fill:none;stroke:#000000;stroke-linecap:square;stroke-linejoin:miter;"/>
   </g>
   <g id="patch_5">
    <path d="M 72 388.8 
L 518.4 388.8 
" style="fill:none;stroke:#000000;stroke-linecap:square;stroke-linejoin:miter;"/>
   </g>
   <g id="patch_6">
    <path d="M 72 388.8 
L 72 43.2 
" style="fill:none;stroke:#000000;stroke-linecap:square;stroke-linejoin:miter;"/>
   </g>
   <g id="matplotlib.axis_1">
    <g id="xtick_1">
     <g id="line2d_3">
      <path clip-path="url(#p060048791f)" d="M 72 388.8 
L 72 43.2 
" style="fill:none;stroke:#000000;stroke-dasharray:1.000000,3.000000;stroke-dashoffset:0.0;stroke-width:0.5;"/>
     </g>
     <g id="line2d_4">
      <defs>
       <path d="M 0 0 
L 0 -4 
" id="m40c88baa20" style="stroke:#000000;stroke-width:0.5;"/>
      </defs>
      <g>
       <use style="stroke:#000000;stroke-width:0.5;" x="72.0" xlink:href="#m40c88baa20" y="388.8"/>
      </g>
     </g>
     <g id="line2d_5">
      <defs>
       <path d="M 0 0 
L 0 4 
" id="m82ce560b98" style="stroke:#000000;stroke-width:0.5;"/>
      </defs>
      <g>
       <use style="stroke:#000000;stroke-width:0.5;" x="72.0" xlink:href="#m82ce560b98" y="43.2"/>
      </g>
     </g>
     <g id="text_1">
      <!-- 0 -->
      <defs>
       <path d="M 31.78125 66.40625 
Q 24.171875 66.40625 20.328125 58.90625 
Q 16.5 51.421875 16.5 36.375 
Q 16.5 21.390625 20.328125 13.890625 
Q 24.171875 6.390625 31.78125 6.390625 
Q 39.453125 6.390625 43.28125 13.890625 
Q 47.125 21.390625 47.125 36.375 
Q 47.125 51.421875 43.28125 58.90625 
Q 39.453125 66.40625 31.78125 66.40625 
M 31.78125 74.21875 
Q 44.046875 74.21875 50.515625 64.515625 
Q 56.984375 54.828125 56.984375 36.375 
Q 56.984375 17.96875 50.515625 8.265625 
Q 44.046875 -1.421875 31.78125 -1.421875 
Q 19.53125 -1.421875 13.0625 8.265625 
Q 6.59375 17.96875 6.59375 36.375 
Q 6.59375 54.828125 13.0625 64.515625 
Q 19.53125 74.21875 31.78125 74.21875 
" id="BitstreamVeraSans-Roman-30"/>
      </defs>
      <g transform="translate(68.1825 401.918125)scale(0.12 -0.12)">
       <use xlink:href="#BitstreamVeraSans-Roman-30"/>
      </g>
     </g>
    </g>
    <g id="xtick_2">
     <g id="line2d_6">
      <path clip-path="url(#p060048791f)" d="M 161.28 388.8 
L 161.28 43.2 
" style="fill:none;stroke:#000000;stroke-dasharray:1.000000,3.000000;stroke-dashoffset:0.0;stroke-width:0.5;"/>
     </g>
     <g id="line2d_7">
      <g>
       <use style="stroke:#000000;stroke-width:0.5;" x="161.28" xlink:href="#m40c88baa20" y="388.8"/>
      </g>
     </g>
     <g id="line2d_8">
      <g>
       <use style="stroke:#000000;stroke-width:0.5;" x="161.28" xlink:href="#m82ce560b98" y="43.2"/>
      </g>
     </g>
     <g id="text_2">
      <!-- 200 -->
      <defs>
       <path d="M 19.1875 8.296875 
L 53.609375 8.296875 
L 53.609375 0 
L 7.328125 0 
L 7.328125 8.296875 
Q 12.9375 14.109375 22.625 23.890625 
Q 32.328125 33.6875 34.8125 36.53125 
Q 39.546875 41.84375 41.421875 45.53125 
Q 43.3125 49.21875 43.3125 52.78125 
Q 43.3125 58.59375 39.234375 62.25 
Q 35.15625 65.921875 28.609375 65.921875 
Q 23.96875 65.921875 18.8125 64.3125 
Q 13.671875 62.703125 7.8125 59.421875 
L 7.8125 69.390625 
Q 13.765625 71.78125 18.9375 73 
Q 24.125 74.21875 28.421875 74.21875 
Q 39.75 74.21875 46.484375 68.546875 
Q 53.21875 62.890625 53.21875 53.421875 
Q 53.21875 48.921875 51.53125 44.890625 
Q 49.859375 40.875 45.40625 35.40625 
Q 44.1875 33.984375 37.640625 27.21875 
Q 31.109375 20.453125 19.1875 8.296875 
" id="BitstreamVeraSans-Roman-32"/>
      </defs>
      <g transform="translate(149.8275 401.918125)scale(0.12 -0.12)">
       <use xlink:href="#BitstreamVeraSans-Roman-32"/>
       <use x="63.623046875" xlink:href="#BitstreamVeraSans-Roman-30"/>
       <use x="127.24609375" xlink:href="#BitstreamVeraSans-Roman-30"/>
      </g>
     </g>
    </g>
    <g id="xtick_3">
     <g id="line2d_9">
      <path clip-path="url(#p060048791f)" d="M 250.56 388.8 
L 250.56 43.2 
" style="fill:none;stroke:#000000;stroke-dasharray:1.000000,3.000000;stroke-dashoffset:0.0;stroke-width:0.5;"/>
     </g>
     <g id="line2d_10">
      <g>
       <use style="stroke:#000000;stroke-width:0.5;" x="250.56" xlink:href="#m40c88baa20" y="388.8"/>
      </g>
     </g>
     <g id="line2d_11">
      <g>
       <use style="stroke:#000000;stroke-width:0.5;" x="250.56" xlink:href="#m82ce560b98" y="43.2"/>
      </g>
     </g>
     <g id="text_3">
      <!-- 400 -->
      <defs>
       <path d="M 37.796875 64.3125 
L 12.890625 25.390625 
L 37.796875 25.390625 
z
M 35.203125 72.90625 
L 47.609375 72.90625 
L 47.609375 25.390625 
L 58.015625 25.390625 
L 58.015625 17.1875 
L 47.609375 17.1875 
L 47.609375 0 
L 37.796875 0 
L 37.796875 17.1875 
L 4.890625 17.1875 
L 4.890625 26.703125 
z
" id="BitstreamVeraSans-Roman-34"/>
      </defs>
      <g transform="translate(239.1075 401.918125)scale(0.12 -0.12)">
       <use xlink:href="#BitstreamVeraSans-Roman-34"/>
       <use x="63.623046875" xlink:href="#BitstreamVeraSans-Roman-30"/>
       <use x="127.24609375" xlink:href="#BitstreamVeraSans-Roman-30"/>
      </g>
     </g>
    </g>
    <g id="xtick_4">
     <g id="line2d_12">
      <path clip-path="url(#p060048791f)" d="M 339.84 388.8 
L 339.84 43.2 
" style="fill:none;stroke:#000000;stroke-dasharray:1.000000,3.000000;stroke-dashoffset:0.0;stroke-width:0.5;"/>
     </g>
     <g id="line2d_13">
      <g>
       <use style="stroke:#000000;stroke-width:0.5;" x="339.84" xlink:href="#m40c88baa20" y="388.8"/>
      </g>
     </g>
     <g id="line2d_14">
      <g>
       <use style="stroke:#000000;stroke-width:0.5;" x="339.84" xlink:href="#m82ce560b98" y="43.2"/>
      </g>
     </g>
     <g id="text_4">
      <!-- 600 -->
      <defs>
       <path d="M 33.015625 40.375 
Q 26.375 40.375 22.484375 35.828125 
Q 18.609375 31.296875 18.609375 23.390625 
Q 18.609375 15.53125 22.484375 10.953125 
Q 26.375 6.390625 33.015625 6.390625 
Q 39.65625 6.390625 43.53125 10.953125 
Q 47.40625 15.53125 47.40625 23.390625 
Q 47.40625 31.296875 43.53125 35.828125 
Q 39.65625 40.375 33.015625 40.375 
M 52.59375 71.296875 
L 52.59375 62.3125 
Q 48.875 64.0625 45.09375 64.984375 
Q 41.3125 65.921875 37.59375 65.921875 
Q 27.828125 65.921875 22.671875 59.328125 
Q 17.53125 52.734375 16.796875 39.40625 
Q 19.671875 43.65625 24.015625 45.921875 
Q 28.375 48.1875 33.59375 48.1875 
Q 44.578125 48.1875 50.953125 41.515625 
Q 57.328125 34.859375 57.328125 23.390625 
Q 57.328125 12.15625 50.6875 5.359375 
Q 44.046875 -1.421875 33.015625 -1.421875 
Q 20.359375 -1.421875 13.671875 8.265625 
Q 6.984375 17.96875 6.984375 36.375 
Q 6.984375 53.65625 15.1875 63.9375 
Q 23.390625 74.21875 37.203125 74.21875 
Q 40.921875 74.21875 44.703125 73.484375 
Q 48.484375 72.75 52.59375 71.296875 
" id="BitstreamVeraSans-Roman-36"/>
      </defs>
      <g transform="translate(328.3875 401.918125)scale(0.12 -0.12)">
       <use xlink:href="#BitstreamVeraSans-Roman-36"/>
       <use x="63.623046875" xlink:href="#BitstreamVeraSans-Roman-30"/>
       <use x="127.24609375" xlink:href="#BitstreamVeraSans-Roman-30"/>
      </g>
     </g>
    </g>
    <g id="xtick_5">
     <g id="line2d_15">
      <path clip-path="url(#p060048791f)" d="M 429.12 388.8 
L 429.12 43.2 
" style="fill:none;stroke:#000000;stroke-dasharray:1.000000,3.000000;stroke-dashoffset:0.0;stroke-width:0.5;"/>
     </g>
     <g id="line2d_16">
      <g>
       <use style="stroke:#000000;stroke-width:0.5;" x="429.12" xlink:href="#m40c88baa20" y="388.8"/>
      </g>
     </g>
     <g id="line2d_17">
      <g>
       <use style="stroke:#000000;stroke-width:0.5;" x="429.12" xlink:href="#m82ce560b98" y="43.2"/>
      </g>
     </g>
     <g id="text_5">
      <!-- 800 -->
      <defs>
       <path d="M 31.78125 34.625 
Q 24.75 34.625 20.71875 30.859375 
Q 16.703125 27.09375 16.703125 20.515625 
Q 16.703125 13.921875 20.71875 10.15625 
Q 24.75 6.390625 31.78125 6.390625 
Q 38.8125 6.390625 42.859375 10.171875 
Q 46.921875 13.96875 46.921875 20.515625 
Q 46.921875 27.09375 42.890625 30.859375 
Q 38.875 34.625 31.78125 34.625 
M 21.921875 38.8125 
Q 15.578125 40.375 12.03125 44.71875 
Q 8.5 49.078125 8.5 55.328125 
Q 8.5 64.0625 14.71875 69.140625 
Q 20.953125 74.21875 31.78125 74.21875 
Q 42.671875 74.21875 48.875 69.140625 
Q 55.078125 64.0625 55.078125 55.328125 
Q 55.078125 49.078125 51.53125 44.71875 
Q 48 40.375 41.703125 38.8125 
Q 48.828125 37.15625 52.796875 32.3125 
Q 56.78125 27.484375 56.78125 20.515625 
Q 56.78125 9.90625 50.3125 4.234375 
Q 43.84375 -1.421875 31.78125 -1.421875 
Q 19.734375 -1.421875 13.25 4.234375 
Q 6.78125 9.90625 6.78125 20.515625 
Q 6.78125 27.484375 10.78125 32.3125 
Q 14.796875 37.15625 21.921875 38.8125 
M 18.3125 54.390625 
Q 18.3125 48.734375 21.84375 45.5625 
Q 25.390625 42.390625 31.78125 42.390625 
Q 38.140625 42.390625 41.71875 45.5625 
Q 45.3125 48.734375 45.3125 54.390625 
Q 45.3125 60.0625 41.71875 63.234375 
Q 38.140625 66.40625 31.78125 66.40625 
Q 25.390625 66.40625 21.84375 63.234375 
Q 18.3125 60.0625 18.3125 54.390625 
" id="BitstreamVeraSans-Roman-38"/>
      </defs>
      <g transform="translate(417.6675 401.918125)scale(0.12 -0.12)">
       <use xlink:href="#BitstreamVeraSans-Roman-38"/>
       <use x="63.623046875" xlink:href="#BitstreamVeraSans-Roman-30"/>
       <use x="127.24609375" xlink:href="#BitstreamVeraSans-Roman-30"/>
      </g>
     </g>
    </g>
    <g id="xtick_6">
     <g id="line2d_18">
      <path clip-path="url(#p060048791f)" d="M 518.4 388.8 
L 518.4 43.2 
" style="fill:none;stroke:#000000;stroke-dasharray:1.000000,3.000000;stroke-dashoffset:0.0;stroke-width:0.5;"/>
     </g>
     <g id="line2d_19">
      <g>
       <use style="stroke:#000000;stroke-width:0.5;" x="518.4" xlink:href="#m40c88baa20" y="388.8"/>
      </g>
     </g>
     <g id="line2d_20">
      <g>
       <use style="stroke:#000000;stroke-width:0.5;" x="518.4" xlink:href="#m82ce560b98" y="43.2"/>
      </g>
     </g>
     <g id="text_6">
      <!-- 1000 -->
      <defs>
       <path d="M 12.40625 8.296875 
L 28.515625 8.296875 
L 28.515625 63.921875 
L 10.984375 60.40625 
L 10.984375 69.390625 
L 28.421875 72.90625 
L 38.28125 72.90625 
L 38.28125 8.296875 
L 54.390625 8.296875 
L 54.390625 0 
L 12.40625 0 
z
" id="BitstreamVeraSans-Roman-31"/>
      </defs>
      <g transform="translate(503.13 401.918125)scale(0.12 -0.12)">
       <use xlink:href="#BitstreamVeraSans-Roman-31"/>
       <use x="63.623046875" xlink:href="#BitstreamVeraSans-Roman-30"/>
       <use x="127.24609375" xlink:href="#BitstreamVeraSans-Roman-30"/>
       <use x="190.869140625" xlink:href="#BitstreamVeraSans-Roman-30"/>
      </g>
     </g>
    </g>
    <g id="text_7">
     <!-- Generations -->
     <defs>
      <path d="M 54.890625 33.015625 
L 54.890625 0 
L 45.90625 0 
L 45.90625 32.71875 
Q 45.90625 40.484375 42.875 44.328125 
Q 39.84375 48.1875 33.796875 48.1875 
Q 26.515625 48.1875 22.3125 43.546875 
Q 18.109375 38.921875 18.109375 30.90625 
L 18.109375 0 
L 9.078125 0 
L 9.078125 54.6875 
L 18.109375 54.6875 
L 18.109375 46.1875 
Q 21.34375 51.125 25.703125 53.5625 
Q 30.078125 56 35.796875 56 
Q 45.21875 56 50.046875 50.171875 
Q 54.890625 44.34375 54.890625 33.015625 
" id="BitstreamVeraSans-Roman-6e"/>
      <path d="M 41.109375 46.296875 
Q 39.59375 47.171875 37.8125 47.578125 
Q 36.03125 48 33.890625 48 
Q 26.265625 48 22.1875 43.046875 
Q 18.109375 38.09375 18.109375 28.8125 
L 18.109375 0 
L 9.078125 0 
L 9.078125 54.6875 
L 18.109375 54.6875 
L 18.109375 46.1875 
Q 20.953125 51.171875 25.484375 53.578125 
Q 30.03125 56 36.53125 56 
Q 37.453125 56 38.578125 55.875 
Q 39.703125 55.765625 41.0625 55.515625 
z
" id="BitstreamVeraSans-Roman-72"/>
      <path d="M 30.609375 48.390625 
Q 23.390625 48.390625 19.1875 42.75 
Q 14.984375 37.109375 14.984375 27.296875 
Q 14.984375 17.484375 19.15625 11.84375 
Q 23.34375 6.203125 30.609375 6.203125 
Q 37.796875 6.203125 41.984375 11.859375 
Q 46.1875 17.53125 46.1875 27.296875 
Q 46.1875 37.015625 41.984375 42.703125 
Q 37.796875 48.390625 30.609375 48.390625 
M 30.609375 56 
Q 42.328125 56 49.015625 48.375 
Q 55.71875 40.765625 55.71875 27.296875 
Q 55.71875 13.875 49.015625 6.21875 
Q 42.328125 -1.421875 30.609375 -1.421875 
Q 18.84375 -1.421875 12.171875 6.21875 
Q 5.515625 13.875 5.515625 27.296875 
Q 5.515625 40.765625 12.171875 48.375 
Q 18.84375 56 30.609375 56 
" id="BitstreamVeraSans-Roman-6f"/>
      <path d="M 59.515625 10.40625 
L 59.515625 29.984375 
L 43.40625 29.984375 
L 43.40625 38.09375 
L 69.28125 38.09375 
L 69.28125 6.78125 
Q 63.578125 2.734375 56.6875 0.65625 
Q 49.8125 -1.421875 42 -1.421875 
Q 24.90625 -1.421875 15.25 8.5625 
Q 5.609375 18.5625 5.609375 36.375 
Q 5.609375 54.25 15.25 64.234375 
Q 24.90625 74.21875 42 74.21875 
Q 49.125 74.21875 55.546875 72.453125 
Q 61.96875 70.703125 67.390625 67.28125 
L 67.390625 56.78125 
Q 61.921875 61.421875 55.765625 63.765625 
Q 49.609375 66.109375 42.828125 66.109375 
Q 29.4375 66.109375 22.71875 58.640625 
Q 16.015625 51.171875 16.015625 36.375 
Q 16.015625 21.625 22.71875 14.15625 
Q 29.4375 6.6875 42.828125 6.6875 
Q 48.046875 6.6875 52.140625 7.59375 
Q 56.25 8.5 59.515625 10.40625 
" id="BitstreamVeraSans-Roman-47"/>
      <path d="M 9.421875 54.6875 
L 18.40625 54.6875 
L 18.40625 0 
L 9.421875 0 
z
M 9.421875 75.984375 
L 18.40625 75.984375 
L 18.40625 64.59375 
L 9.421875 64.59375 
z
" id="BitstreamVeraSans-Roman-69"/>
      <path d="M 56.203125 29.59375 
L 56.203125 25.203125 
L 14.890625 25.203125 
Q 15.484375 15.921875 20.484375 11.0625 
Q 25.484375 6.203125 34.421875 6.203125 
Q 39.59375 6.203125 44.453125 7.46875 
Q 49.3125 8.734375 54.109375 11.28125 
L 54.109375 2.78125 
Q 49.265625 0.734375 44.1875 -0.34375 
Q 39.109375 -1.421875 33.890625 -1.421875 
Q 20.796875 -1.421875 13.15625 6.1875 
Q 5.515625 13.8125 5.515625 26.8125 
Q 5.515625 40.234375 12.765625 48.109375 
Q 20.015625 56 32.328125 56 
Q 43.359375 56 49.78125 48.890625 
Q 56.203125 41.796875 56.203125 29.59375 
M 47.21875 32.234375 
Q 47.125 39.59375 43.09375 43.984375 
Q 39.0625 48.390625 32.421875 48.390625 
Q 24.90625 48.390625 20.390625 44.140625 
Q 15.875 39.890625 15.1875 32.171875 
z
" id="BitstreamVeraSans-Roman-65"/>
      <path d="M 18.3125 70.21875 
L 18.3125 54.6875 
L 36.8125 54.6875 
L 36.8125 47.703125 
L 18.3125 47.703125 
L 18.3125 18.015625 
Q 18.3125 11.328125 20.140625 9.421875 
Q 21.96875 7.515625 27.59375 7.515625 
L 36.8125 7.515625 
L 36.8125 0 
L 27.59375 0 
Q 17.1875 0 13.234375 3.875 
Q 9.28125 7.765625 9.28125 18.015625 
L 9.28125 47.703125 
L 2.6875 47.703125 
L 2.6875 54.6875 
L 9.28125 54.6875 
L 9.28125 70.21875 
z
" id="BitstreamVeraSans-Roman-74"/>
      <path d="M 34.28125 27.484375 
Q 23.390625 27.484375 19.1875 25 
Q 14.984375 22.515625 14.984375 16.5 
Q 14.984375 11.71875 18.140625 8.90625 
Q 21.296875 6.109375 26.703125 6.109375 
Q 34.1875 6.109375 38.703125 11.40625 
Q 43.21875 16.703125 43.21875 25.484375 
L 43.21875 27.484375 
z
M 52.203125 31.203125 
L 52.203125 0 
L 43.21875 0 
L 43.21875 8.296875 
Q 40.140625 3.328125 35.546875 0.953125 
Q 30.953125 -1.421875 24.3125 -1.421875 
Q 15.921875 -1.421875 10.953125 3.296875 
Q 6 8.015625 6 15.921875 
Q 6 25.140625 12.171875 29.828125 
Q 18.359375 34.515625 30.609375 34.515625 
L 43.21875 34.515625 
L 43.21875 35.40625 
Q 43.21875 41.609375 39.140625 45 
Q 35.0625 48.390625 27.6875 48.390625 
Q 23 48.390625 18.546875 47.265625 
Q 14.109375 46.140625 10.015625 43.890625 
L 10.015625 52.203125 
Q 14.9375 54.109375 19.578125 55.046875 
Q 24.21875 56 28.609375 56 
Q 40.484375 56 46.34375 49.84375 
Q 52.203125 43.703125 52.203125 31.203125 
" id="BitstreamVeraSans-Roman-61"/>
      <path d="M 44.28125 53.078125 
L 44.28125 44.578125 
Q 40.484375 46.53125 36.375 47.5 
Q 32.28125 48.484375 27.875 48.484375 
Q 21.1875 48.484375 17.84375 46.4375 
Q 14.5 44.390625 14.5 40.28125 
Q 14.5 37.15625 16.890625 35.375 
Q 19.28125 33.59375 26.515625 31.984375 
L 29.59375 31.296875 
Q 39.15625 29.25 43.1875 25.515625 
Q 47.21875 21.78125 47.21875 15.09375 
Q 47.21875 7.46875 41.1875 3.015625 
Q 35.15625 -1.421875 24.609375 -1.421875 
Q 20.21875 -1.421875 15.453125 -0.5625 
Q 10.6875 0.296875 5.421875 2 
L 5.421875 11.28125 
Q 10.40625 8.6875 15.234375 7.390625 
Q 20.0625 6.109375 24.8125 6.109375 
Q 31.15625 6.109375 34.5625 8.28125 
Q 37.984375 10.453125 37.984375 14.40625 
Q 37.984375 18.0625 35.515625 20.015625 
Q 33.0625 21.96875 24.703125 23.78125 
L 21.578125 24.515625 
Q 13.234375 26.265625 9.515625 29.90625 
Q 5.8125 33.546875 5.8125 39.890625 
Q 5.8125 47.609375 11.28125 51.796875 
Q 16.75 56 26.8125 56 
Q 31.78125 56 36.171875 55.265625 
Q 40.578125 54.546875 44.28125 53.078125 
" id="BitstreamVeraSans-Roman-73"/>
     </defs>
     <g transform="translate(258.6028125 418.531875)scale(0.12 -0.12)">
      <use xlink:href="#BitstreamVeraSans-Roman-47"/>
      <use x="77.490234375" xlink:href="#BitstreamVeraSans-Roman-65"/>
      <use x="139.013671875" xlink:href="#BitstreamVeraSans-Roman-6e"/>
      <use x="202.392578125" xlink:href="#BitstreamVeraSans-Roman-65"/>
      <use x="263.916015625" xlink:href="#BitstreamVeraSans-Roman-72"/>
      <use x="305.029296875" xlink:href="#BitstreamVeraSans-Roman-61"/>
      <use x="366.30859375" xlink:href="#BitstreamVeraSans-Roman-74"/>
      <use x="405.517578125" xlink:href="#BitstreamVeraSans-Roman-69"/>
      <use x="433.30078125" xlink:href="#BitstreamVeraSans-Roman-6f"/>
      <use x="494.482421875" xlink:href="#BitstreamVeraSans-Roman-6e"/>
      <use x="557.861328125" xlink:href="#BitstreamVeraSans-Roman-73"/>
     </g>
    </g>
   </g>
   <g id="matplotlib.axis_2">
    <g id="ytick_1">
     <g id="line2d_21">
      <path clip-path="url(#p060048791f)" d="M 72 388.8 
L 518.4 388.8 
" style="fill:none;stroke:#000000;stroke-dasharray:1.000000,3.000000;stroke-dashoffset:0.0;stroke-width:0.5;"/>
     </g>
     <g id="line2d_22">
      <defs>
       <path d="M 0 0 
L 4 0 
" id="m4fe45f62c2" style="stroke:#000000;stroke-width:0.5;"/>
      </defs>
      <g>
       <use style="stroke:#000000;stroke-width:0.5;" x="72.0" xlink:href="#m4fe45f62c2" y="388.8"/>
      </g>
     </g>
     <g id="line2d_23">
      <defs>
       <path d="M 0 0 
L -4 0 
" id="m89bac11b7c" style="stroke:#000000;stroke-width:0.5;"/>
      </defs>
      <g>
       <use style="stroke:#000000;stroke-width:0.5;" x="518.4" xlink:href="#m89bac11b7c" y="388.8"/>
      </g>
     </g>
     <g id="text_8">
      <!-- 0.3 -->
      <defs>
       <path d="M 40.578125 39.3125 
Q 47.65625 37.796875 51.625 33 
Q 55.609375 28.21875 55.609375 21.1875 
Q 55.609375 10.40625 48.1875 4.484375 
Q 40.765625 -1.421875 27.09375 -1.421875 
Q 22.515625 -1.421875 17.65625 -0.515625 
Q 12.796875 0.390625 7.625 2.203125 
L 7.625 11.71875 
Q 11.71875 9.328125 16.59375 8.109375 
Q 21.484375 6.890625 26.8125 6.890625 
Q 36.078125 6.890625 40.9375 10.546875 
Q 45.796875 14.203125 45.796875 21.1875 
Q 45.796875 27.640625 41.28125 31.265625 
Q 36.765625 34.90625 28.71875 34.90625 
L 20.21875 34.90625 
L 20.21875 43.015625 
L 29.109375 43.015625 
Q 36.375 43.015625 40.234375 45.921875 
Q 44.09375 48.828125 44.09375 54.296875 
Q 44.09375 59.90625 40.109375 62.90625 
Q 36.140625 65.921875 28.71875 65.921875 
Q 24.65625 65.921875 20.015625 65.03125 
Q 15.375 64.15625 9.8125 62.3125 
L 9.8125 71.09375 
Q 15.4375 72.65625 20.34375 73.4375 
Q 25.25 74.21875 29.59375 74.21875 
Q 40.828125 74.21875 47.359375 69.109375 
Q 53.90625 64.015625 53.90625 55.328125 
Q 53.90625 49.265625 50.4375 45.09375 
Q 46.96875 40.921875 40.578125 39.3125 
" id="BitstreamVeraSans-Roman-33"/>
       <path d="M 10.6875 12.40625 
L 21 12.40625 
L 21 0 
L 10.6875 0 
z
" id="BitstreamVeraSans-Roman-2e"/>
      </defs>
      <g transform="translate(48.91625 392.11125)scale(0.12 -0.12)">
       <use xlink:href="#BitstreamVeraSans-Roman-30"/>
       <use x="63.623046875" xlink:href="#BitstreamVeraSans-Roman-2e"/>
       <use x="95.41015625" xlink:href="#BitstreamVeraSans-Roman-33"/>
      </g>
     </g>
    </g>
    <g id="ytick_2">
     <g id="line2d_24">
      <path clip-path="url(#p060048791f)" d="M 72 339.428571 
L 518.4 339.428571 
" style="fill:none;stroke:#000000;stroke-dasharray:1.000000,3.000000;stroke-dashoffset:0.0;stroke-width:0.5;"/>
     </g>
     <g id="line2d_25">
      <g>
       <use style="stroke:#000000;stroke-width:0.5;" x="72.0" xlink:href="#m4fe45f62c2" y="339.428571429"/>
      </g>
     </g>
     <g id="line2d_26">
      <g>
       <use style="stroke:#000000;stroke-width:0.5;" x="518.4" xlink:href="#m89bac11b7c" y="339.428571429"/>
      </g>
     </g>
     <g id="text_9">
      <!-- 0.4 -->
      <g transform="translate(48.91625 342.739821429)scale(0.12 -0.12)">
       <use xlink:href="#BitstreamVeraSans-Roman-30"/>
       <use x="63.623046875" xlink:href="#BitstreamVeraSans-Roman-2e"/>
       <use x="95.41015625" xlink:href="#BitstreamVeraSans-Roman-34"/>
      </g>
     </g>
    </g>
    <g id="ytick_3">
     <g id="line2d_27">
      <path clip-path="url(#p060048791f)" d="M 72 290.057143 
L 518.4 290.057143 
" style="fill:none;stroke:#000000;stroke-dasharray:1.000000,3.000000;stroke-dashoffset:0.0;stroke-width:0.5;"/>
     </g>
     <g id="line2d_28">
      <g>
       <use style="stroke:#000000;stroke-width:0.5;" x="72.0" xlink:href="#m4fe45f62c2" y="290.057142857"/>
      </g>
     </g>
     <g id="line2d_29">
      <g>
       <use style="stroke:#000000;stroke-width:0.5;" x="518.4" xlink:href="#m89bac11b7c" y="290.057142857"/>
      </g>
     </g>
     <g id="text_10">
      <!-- 0.5 -->
      <defs>
       <path d="M 10.796875 72.90625 
L 49.515625 72.90625 
L 49.515625 64.59375 
L 19.828125 64.59375 
L 19.828125 46.734375 
Q 21.96875 47.46875 24.109375 47.828125 
Q 26.265625 48.1875 28.421875 48.1875 
Q 40.625 48.1875 47.75 41.5 
Q 54.890625 34.8125 54.890625 23.390625 
Q 54.890625 11.625 47.5625 5.09375 
Q 40.234375 -1.421875 26.90625 -1.421875 
Q 22.3125 -1.421875 17.546875 -0.640625 
Q 12.796875 0.140625 7.71875 1.703125 
L 7.71875 11.625 
Q 12.109375 9.234375 16.796875 8.0625 
Q 21.484375 6.890625 26.703125 6.890625 
Q 35.15625 6.890625 40.078125 11.328125 
Q 45.015625 15.765625 45.015625 23.390625 
Q 45.015625 31 40.078125 35.4375 
Q 35.15625 39.890625 26.703125 39.890625 
Q 22.75 39.890625 18.8125 39.015625 
Q 14.890625 38.140625 10.796875 36.28125 
z
" id="BitstreamVeraSans-Roman-35"/>
      </defs>
      <g transform="translate(48.91625 293.368392857)scale(0.12 -0.12)">
       <use xlink:href="#BitstreamVeraSans-Roman-30"/>
       <use x="63.623046875" xlink:href="#BitstreamVeraSans-Roman-2e"/>
       <use x="95.41015625" xlink:href="#BitstreamVeraSans-Roman-35"/>
      </g>
     </g>
    </g>
    <g id="ytick_4">
     <g id="line2d_30">
      <path clip-path="url(#p060048791f)" d="M 72 240.685714 
L 518.4 240.685714 
" style="fill:none;stroke:#000000;stroke-dasharray:1.000000,3.000000;stroke-dashoffset:0.0;stroke-width:0.5;"/>
     </g>
     <g id="line2d_31">
      <g>
       <use style="stroke:#000000;stroke-width:0.5;" x="72.0" xlink:href="#m4fe45f62c2" y="240.685714286"/>
      </g>
     </g>
     <g id="line2d_32">
      <g>
       <use style="stroke:#000000;stroke-width:0.5;" x="518.4" xlink:href="#m89bac11b7c" y="240.685714286"/>
      </g>
     </g>
     <g id="text_11">
      <!-- 0.6 -->
      <g transform="translate(48.91625 243.996964286)scale(0.12 -0.12)">
       <use xlink:href="#BitstreamVeraSans-Roman-30"/>
       <use x="63.623046875" xlink:href="#BitstreamVeraSans-Roman-2e"/>
       <use x="95.41015625" xlink:href="#BitstreamVeraSans-Roman-36"/>
      </g>
     </g>
    </g>
    <g id="ytick_5">
     <g id="line2d_33">
      <path clip-path="url(#p060048791f)" d="M 72 191.314286 
L 518.4 191.314286 
" style="fill:none;stroke:#000000;stroke-dasharray:1.000000,3.000000;stroke-dashoffset:0.0;stroke-width:0.5;"/>
     </g>
     <g id="line2d_34">
      <g>
       <use style="stroke:#000000;stroke-width:0.5;" x="72.0" xlink:href="#m4fe45f62c2" y="191.314285714"/>
      </g>
     </g>
     <g id="line2d_35">
      <g>
       <use style="stroke:#000000;stroke-width:0.5;" x="518.4" xlink:href="#m89bac11b7c" y="191.314285714"/>
      </g>
     </g>
     <g id="text_12">
      <!-- 0.7 -->
      <defs>
       <path d="M 8.203125 72.90625 
L 55.078125 72.90625 
L 55.078125 68.703125 
L 28.609375 0 
L 18.3125 0 
L 43.21875 64.59375 
L 8.203125 64.59375 
z
" id="BitstreamVeraSans-Roman-37"/>
      </defs>
      <g transform="translate(48.91625 194.625535714)scale(0.12 -0.12)">
       <use xlink:href="#BitstreamVeraSans-Roman-30"/>
       <use x="63.623046875" xlink:href="#BitstreamVeraSans-Roman-2e"/>
       <use x="95.41015625" xlink:href="#BitstreamVeraSans-Roman-37"/>
      </g>
     </g>
    </g>
    <g id="ytick_6">
     <g id="line2d_36">
      <path clip-path="url(#p060048791f)" d="M 72 141.942857 
L 518.4 141.942857 
" style="fill:none;stroke:#000000;stroke-dasharray:1.000000,3.000000;stroke-dashoffset:0.0;stroke-width:0.5;"/>
     </g>
     <g id="line2d_37">
      <g>
       <use style="stroke:#000000;stroke-width:0.5;" x="72.0" xlink:href="#m4fe45f62c2" y="141.942857143"/>
      </g>
     </g>
     <g id="line2d_38">
      <g>
       <use style="stroke:#000000;stroke-width:0.5;" x="518.4" xlink:href="#m89bac11b7c" y="141.942857143"/>
      </g>
     </g>
     <g id="text_13">
      <!-- 0.8 -->
      <g transform="translate(48.91625 145.254107143)scale(0.12 -0.12)">
       <use xlink:href="#BitstreamVeraSans-Roman-30"/>
       <use x="63.623046875" xlink:href="#BitstreamVeraSans-Roman-2e"/>
       <use x="95.41015625" xlink:href="#BitstreamVeraSans-Roman-38"/>
      </g>
     </g>
    </g>
    <g id="ytick_7">
     <g id="line2d_39">
      <path clip-path="url(#p060048791f)" d="M 72 92.571429 
L 518.4 92.571429 
" style="fill:none;stroke:#000000;stroke-dasharray:1.000000,3.000000;stroke-dashoffset:0.0;stroke-width:0.5;"/>
     </g>
     <g id="line2d_40">
      <g>
       <use style="stroke:#000000;stroke-width:0.5;" x="72.0" xlink:href="#m4fe45f62c2" y="92.5714285714"/>
      </g>
     </g>
     <g id="line2d_41">
      <g>
       <use style="stroke:#000000;stroke-width:0.5;" x="518.4" xlink:href="#m89bac11b7c" y="92.5714285714"/>
      </g>
     </g>
     <g id="text_14">
      <!-- 0.9 -->
      <defs>
       <path d="M 10.984375 1.515625 
L 10.984375 10.5 
Q 14.703125 8.734375 18.5 7.8125 
Q 22.3125 6.890625 25.984375 6.890625 
Q 35.75 6.890625 40.890625 13.453125 
Q 46.046875 20.015625 46.78125 33.40625 
Q 43.953125 29.203125 39.59375 26.953125 
Q 35.25 24.703125 29.984375 24.703125 
Q 19.046875 24.703125 12.671875 31.3125 
Q 6.296875 37.9375 6.296875 49.421875 
Q 6.296875 60.640625 12.9375 67.421875 
Q 19.578125 74.21875 30.609375 74.21875 
Q 43.265625 74.21875 49.921875 64.515625 
Q 56.59375 54.828125 56.59375 36.375 
Q 56.59375 19.140625 48.40625 8.859375 
Q 40.234375 -1.421875 26.421875 -1.421875 
Q 22.703125 -1.421875 18.890625 -0.6875 
Q 15.09375 0.046875 10.984375 1.515625 
M 30.609375 32.421875 
Q 37.25 32.421875 41.125 36.953125 
Q 45.015625 41.5 45.015625 49.421875 
Q 45.015625 57.28125 41.125 61.84375 
Q 37.25 66.40625 30.609375 66.40625 
Q 23.96875 66.40625 20.09375 61.84375 
Q 16.21875 57.28125 16.21875 49.421875 
Q 16.21875 41.5 20.09375 36.953125 
Q 23.96875 32.421875 30.609375 32.421875 
" id="BitstreamVeraSans-Roman-39"/>
      </defs>
      <g transform="translate(48.91625 95.8826785714)scale(0.12 -0.12)">
       <use xlink:href="#BitstreamVeraSans-Roman-30"/>
       <use x="63.623046875" xlink:href="#BitstreamVeraSans-Roman-2e"/>
       <use x="95.41015625" xlink:href="#BitstreamVeraSans-Roman-39"/>
      </g>
     </g>
    </g>
    <g id="ytick_8">
     <g id="line2d_42">
      <path clip-path="url(#p060048791f)" d="M 72 43.2 
L 518.4 43.2 
" style="fill:none;stroke:#000000;stroke-dasharray:1.000000,3.000000;stroke-dashoffset:0.0;stroke-width:0.5;"/>
     </g>
     <g id="line2d_43">
      <g>
       <use style="stroke:#000000;stroke-width:0.5;" x="72.0" xlink:href="#m4fe45f62c2" y="43.2"/>
      </g>
     </g>
     <g id="line2d_44">
      <g>
       <use style="stroke:#000000;stroke-width:0.5;" x="518.4" xlink:href="#m89bac11b7c" y="43.2"/>
      </g>
     </g>
     <g id="text_15">
      <!-- 1.0 -->
      <g transform="translate(48.91625 46.51125)scale(0.12 -0.12)">
       <use xlink:href="#BitstreamVeraSans-Roman-31"/>
       <use x="63.623046875" xlink:href="#BitstreamVeraSans-Roman-2e"/>
       <use x="95.41015625" xlink:href="#BitstreamVeraSans-Roman-30"/>
      </g>
     </g>
    </g>
    <g id="text_16">
     <!-- Fitness -->
     <defs>
      <path d="M 9.8125 72.90625 
L 51.703125 72.90625 
L 51.703125 64.59375 
L 19.671875 64.59375 
L 19.671875 43.109375 
L 48.578125 43.109375 
L 48.578125 34.8125 
L 19.671875 34.8125 
L 19.671875 0 
L 9.8125 0 
z
" id="BitstreamVeraSans-Roman-46"/>
     </defs>
     <g transform="translate(41.420625 237.2090625)rotate(-90.0)scale(0.12 -0.12)">
      <use xlink:href="#BitstreamVeraSans-Roman-46"/>
      <use x="57.41015625" xlink:href="#BitstreamVeraSans-Roman-69"/>
      <use x="85.193359375" xlink:href="#BitstreamVeraSans-Roman-74"/>
      <use x="124.40234375" xlink:href="#BitstreamVeraSans-Roman-6e"/>
      <use x="187.78125" xlink:href="#BitstreamVeraSans-Roman-65"/>
      <use x="249.3046875" xlink:href="#BitstreamVeraSans-Roman-73"/>
      <use x="301.404296875" xlink:href="#BitstreamVeraSans-Roman-73"/>
     </g>
    </g>
   </g>
   <g id="text_17">
    <!-- Population's average and best fitness -->
    <defs>
     <path id="BitstreamVeraSans-Roman-20"/>
     <path d="M 37.109375 75.984375 
L 37.109375 68.5 
L 28.515625 68.5 
Q 23.6875 68.5 21.796875 66.546875 
Q 19.921875 64.59375 19.921875 59.515625 
L 19.921875 54.6875 
L 34.71875 54.6875 
L 34.71875 47.703125 
L 19.921875 47.703125 
L 19.921875 0 
L 10.890625 0 
L 10.890625 47.703125 
L 2.296875 47.703125 
L 2.296875 54.6875 
L 10.890625 54.6875 
L 10.890625 58.5 
Q 10.890625 67.625 15.140625 71.796875 
Q 19.390625 75.984375 28.609375 75.984375 
z
" id="BitstreamVeraSans-Roman-66"/>
     <path d="M 17.921875 72.90625 
L 17.921875 45.796875 
L 9.625 45.796875 
L 9.625 72.90625 
z
" id="BitstreamVeraSans-Roman-27"/>
     <path d="M 9.421875 75.984375 
L 18.40625 75.984375 
L 18.40625 0 
L 9.421875 0 
z
" id="BitstreamVeraSans-Roman-6c"/>
     <path d="M 19.671875 64.796875 
L 19.671875 37.40625 
L 32.078125 37.40625 
Q 38.96875 37.40625 42.71875 40.96875 
Q 46.484375 44.53125 46.484375 51.125 
Q 46.484375 57.671875 42.71875 61.234375 
Q 38.96875 64.796875 32.078125 64.796875 
z
M 9.8125 72.90625 
L 32.078125 72.90625 
Q 44.34375 72.90625 50.609375 67.359375 
Q 56.890625 61.8125 56.890625 51.125 
Q 56.890625 40.328125 50.609375 34.8125 
Q 44.34375 29.296875 32.078125 29.296875 
L 19.671875 29.296875 
L 19.671875 0 
L 9.8125 0 
z
" id="BitstreamVeraSans-Roman-50"/>
     <path d="M 2.984375 54.6875 
L 12.5 54.6875 
L 29.59375 8.796875 
L 46.6875 54.6875 
L 56.203125 54.6875 
L 35.6875 0 
L 23.484375 0 
z
" id="BitstreamVeraSans-Roman-76"/>
     <path d="M 45.40625 46.390625 
L 45.40625 75.984375 
L 54.390625 75.984375 
L 54.390625 0 
L 45.40625 0 
L 45.40625 8.203125 
Q 42.578125 3.328125 38.25 0.953125 
Q 33.9375 -1.421875 27.875 -1.421875 
Q 17.96875 -1.421875 11.734375 6.484375 
Q 5.515625 14.40625 5.515625 27.296875 
Q 5.515625 40.1875 11.734375 48.09375 
Q 17.96875 56 27.875 56 
Q 33.9375 56 38.25 53.625 
Q 42.578125 51.265625 45.40625 46.390625 
M 14.796875 27.296875 
Q 14.796875 17.390625 18.875 11.75 
Q 22.953125 6.109375 30.078125 6.109375 
Q 37.203125 6.109375 41.296875 11.75 
Q 45.40625 17.390625 45.40625 27.296875 
Q 45.40625 37.203125 41.296875 42.84375 
Q 37.203125 48.484375 30.078125 48.484375 
Q 22.953125 48.484375 18.875 42.84375 
Q 14.796875 37.203125 14.796875 27.296875 
" id="BitstreamVeraSans-Roman-64"/>
     <path d="M 45.40625 27.984375 
Q 45.40625 37.75 41.375 43.109375 
Q 37.359375 48.484375 30.078125 48.484375 
Q 22.859375 48.484375 18.828125 43.109375 
Q 14.796875 37.75 14.796875 27.984375 
Q 14.796875 18.265625 18.828125 12.890625 
Q 22.859375 7.515625 30.078125 7.515625 
Q 37.359375 7.515625 41.375 12.890625 
Q 45.40625 18.265625 45.40625 27.984375 
M 54.390625 6.78125 
Q 54.390625 -7.171875 48.1875 -13.984375 
Q 42 -20.796875 29.203125 -20.796875 
Q 24.46875 -20.796875 20.265625 -20.09375 
Q 16.0625 -19.390625 12.109375 -17.921875 
L 12.109375 -9.1875 
Q 16.0625 -11.328125 19.921875 -12.34375 
Q 23.78125 -13.375 27.78125 -13.375 
Q 36.625 -13.375 41.015625 -8.765625 
Q 45.40625 -4.15625 45.40625 5.171875 
L 45.40625 9.625 
Q 42.625 4.78125 38.28125 2.390625 
Q 33.9375 0 27.875 0 
Q 17.828125 0 11.671875 7.65625 
Q 5.515625 15.328125 5.515625 27.984375 
Q 5.515625 40.671875 11.671875 48.328125 
Q 17.828125 56 27.875 56 
Q 33.9375 56 38.28125 53.609375 
Q 42.625 51.21875 45.40625 46.390625 
L 45.40625 54.6875 
L 54.390625 54.6875 
z
" id="BitstreamVeraSans-Roman-67"/>
     <path d="M 8.5 21.578125 
L 8.5 54.6875 
L 17.484375 54.6875 
L 17.484375 21.921875 
Q 17.484375 14.15625 20.5 10.265625 
Q 23.53125 6.390625 29.59375 6.390625 
Q 36.859375 6.390625 41.078125 11.03125 
Q 45.3125 15.671875 45.3125 23.6875 
L 45.3125 54.6875 
L 54.296875 54.6875 
L 54.296875 0 
L 45.3125 0 
L 45.3125 8.40625 
Q 42.046875 3.421875 37.71875 1 
Q 33.40625 -1.421875 27.6875 -1.421875 
Q 18.265625 -1.421875 13.375 4.4375 
Q 8.5 10.296875 8.5 21.578125 
" id="BitstreamVeraSans-Roman-75"/>
     <path d="M 18.109375 8.203125 
L 18.109375 -20.796875 
L 9.078125 -20.796875 
L 9.078125 54.6875 
L 18.109375 54.6875 
L 18.109375 46.390625 
Q 20.953125 51.265625 25.265625 53.625 
Q 29.59375 56 35.59375 56 
Q 45.5625 56 51.78125 48.09375 
Q 58.015625 40.1875 58.015625 27.296875 
Q 58.015625 14.40625 51.78125 6.484375 
Q 45.5625 -1.421875 35.59375 -1.421875 
Q 29.59375 -1.421875 25.265625 0.953125 
Q 20.953125 3.328125 18.109375 8.203125 
M 48.6875 27.296875 
Q 48.6875 37.203125 44.609375 42.84375 
Q 40.53125 48.484375 33.40625 48.484375 
Q 26.265625 48.484375 22.1875 42.84375 
Q 18.109375 37.203125 18.109375 27.296875 
Q 18.109375 17.390625 22.1875 11.75 
Q 26.265625 6.109375 33.40625 6.109375 
Q 40.53125 6.109375 44.609375 11.75 
Q 48.6875 17.390625 48.6875 27.296875 
" id="BitstreamVeraSans-Roman-70"/>
     <path d="M 48.6875 27.296875 
Q 48.6875 37.203125 44.609375 42.84375 
Q 40.53125 48.484375 33.40625 48.484375 
Q 26.265625 48.484375 22.1875 42.84375 
Q 18.109375 37.203125 18.109375 27.296875 
Q 18.109375 17.390625 22.1875 11.75 
Q 26.265625 6.109375 33.40625 6.109375 
Q 40.53125 6.109375 44.609375 11.75 
Q 48.6875 17.390625 48.6875 27.296875 
M 18.109375 46.390625 
Q 20.953125 51.265625 25.265625 53.625 
Q 29.59375 56 35.59375 56 
Q 45.5625 56 51.78125 48.09375 
Q 58.015625 40.1875 58.015625 27.296875 
Q 58.015625 14.40625 51.78125 6.484375 
Q 45.5625 -1.421875 35.59375 -1.421875 
Q 29.59375 -1.421875 25.265625 0.953125 
Q 20.953125 3.328125 18.109375 8.203125 
L 18.109375 0 
L 9.078125 0 
L 9.078125 75.984375 
L 18.109375 75.984375 
z
" id="BitstreamVeraSans-Roman-62"/>
    </defs>
    <g transform="translate(159.786 38.2)scale(0.144 -0.144)">
     <use xlink:href="#BitstreamVeraSans-Roman-50"/>
     <use x="60.255859375" xlink:href="#BitstreamVeraSans-Roman-6f"/>
     <use x="121.4375" xlink:href="#BitstreamVeraSans-Roman-70"/>
     <use x="184.9140625" xlink:href="#BitstreamVeraSans-Roman-75"/>
     <use x="248.29296875" xlink:href="#BitstreamVeraSans-Roman-6c"/>
     <use x="276.076171875" xlink:href="#BitstreamVeraSans-Roman-61"/>
     <use x="337.35546875" xlink:href="#BitstreamVeraSans-Roman-74"/>
     <use x="376.564453125" xlink:href="#BitstreamVeraSans-Roman-69"/>
     <use x="404.34765625" xlink:href="#BitstreamVeraSans-Roman-6f"/>
     <use x="465.529296875" xlink:href="#BitstreamVeraSans-Roman-6e"/>
     <use x="528.908203125" xlink:href="#BitstreamVeraSans-Roman-27"/>
     <use x="556.3984375" xlink:href="#BitstreamVeraSans-Roman-73"/>
     <use x="608.498046875" xlink:href="#BitstreamVeraSans-Roman-20"/>
     <use x="640.28515625" xlink:href="#BitstreamVeraSans-Roman-61"/>
     <use x="701.564453125" xlink:href="#BitstreamVeraSans-Roman-76"/>
     <use x="760.744140625" xlink:href="#BitstreamVeraSans-Roman-65"/>
     <use x="822.267578125" xlink:href="#BitstreamVeraSans-Roman-72"/>
     <use x="863.380859375" xlink:href="#BitstreamVeraSans-Roman-61"/>
     <use x="924.66015625" xlink:href="#BitstreamVeraSans-Roman-67"/>
     <use x="988.13671875" xlink:href="#BitstreamVeraSans-Roman-65"/>
     <use x="1049.66015625" xlink:href="#BitstreamVeraSans-Roman-20"/>
     <use x="1081.44726562" xlink:href="#BitstreamVeraSans-Roman-61"/>
     <use x="1142.7265625" xlink:href="#BitstreamVeraSans-Roman-6e"/>
     <use x="1206.10546875" xlink:href="#BitstreamVeraSans-Roman-64"/>
     <use x="1269.58203125" xlink:href="#BitstreamVeraSans-Roman-20"/>
     <use x="1301.36914062" xlink:href="#BitstreamVeraSans-Roman-62"/>
     <use x="1364.84570312" xlink:href="#BitstreamVeraSans-Roman-65"/>
     <use x="1426.36914062" xlink:href="#BitstreamVeraSans-Roman-73"/>
     <use x="1478.46875" xlink:href="#BitstreamVeraSans-Roman-74"/>
     <use x="1517.67773438" xlink:href="#BitstreamVeraSans-Roman-20"/>
     <use x="1549.46484375" xlink:href="#BitstreamVeraSans-Roman-66"/>
     <use x="1584.66992188" xlink:href="#BitstreamVeraSans-Roman-69"/>
     <use x="1612.453125" xlink:href="#BitstreamVeraSans-Roman-74"/>
     <use x="1651.66210938" xlink:href="#BitstreamVeraSans-Roman-6e"/>
     <use x="1715.04101562" xlink:href="#BitstreamVeraSans-Roman-65"/>
     <use x="1776.56445312" xlink:href="#BitstreamVeraSans-Roman-73"/>
     <use x="1828.6640625" xlink:href="#BitstreamVeraSans-Roman-73"/>
    </g>
   </g>
   <g id="legend_1">
    <g id="patch_7">
     <path d="M 79.2 381.6 
L 189.9945 381.6 
L 189.9945 335.007 
L 79.2 335.007 
z
" style="fill:#ffffff;stroke:#000000;stroke-linejoin:miter;"/>
    </g>
    <g id="line2d_45">
     <path d="M 89.28 346.66875 
L 109.44 346.66875 
" style="fill:none;stroke:#0000ff;stroke-linecap:square;"/>
    </g>
    <g id="line2d_46"/>
    <g id="text_18">
     <!-- average -->
     <g transform="translate(125.28 351.70875)scale(0.144 -0.144)">
      <use xlink:href="#BitstreamVeraSans-Roman-61"/>
      <use x="61.279296875" xlink:href="#BitstreamVeraSans-Roman-76"/>
      <use x="120.458984375" xlink:href="#BitstreamVeraSans-Roman-65"/>
      <use x="181.982421875" xlink:href="#BitstreamVeraSans-Roman-72"/>
      <use x="223.095703125" xlink:href="#BitstreamVeraSans-Roman-61"/>
      <use x="284.375" xlink:href="#BitstreamVeraSans-Roman-67"/>
      <use x="347.8515625" xlink:href="#BitstreamVeraSans-Roman-65"/>
     </g>
    </g>
    <g id="line2d_47">
     <path d="M 89.28 367.80525 
L 109.44 367.80525 
" style="fill:none;stroke:#ff0000;stroke-linecap:square;"/>
    </g>
    <g id="line2d_48"/>
    <g id="text_19">
     <!-- best -->
     <g transform="translate(125.28 372.84525)scale(0.144 -0.144)">
      <use xlink:href="#BitstreamVeraSans-Roman-62"/>
      <use x="63.4765625" xlink:href="#BitstreamVeraSans-Roman-65"/>
      <use x="125.0" xlink:href="#BitstreamVeraSans-Roman-73"/>
      <use x="177.099609375" xlink:href="#BitstreamVeraSans-Roman-74"/>
     </g>
    </g>
   </g>
  </g>
 </g>
 <defs>
  <clipPath id="p060048791f">
   <rect height="345.6" width="446.4" x="72.0" y="43.2"/>
  </clipPath>
 </defs>
</svg>
